# xmcd
#
# Track frame offsets:
#	150
#	21521
#	31359
#	76192
#	92787
#	103763
#	121492
#	133894
#	157708
#	174626
#	194916
#	209851
#	227557
#	241295
#	260217
#	272935
#	294943
#	312514
#	322959
#	327601
#
# Disc length: 4577 seconds
#
# Revision: 1
# Processed by: cddbd v1.5.2PL0 Copyright (c) Steve Scherf et al.
# Submitted via: audiograbber 1.83.01
#
DISCID=3511df14
DTITLE=Various Artist - Country Meets Southern Rock - CD1
DYEAR=2009
DGENRE=Southern Rock
TTITLE0=Outlaws feat. Hughie Thomasson - Sweet Home Alabama
TTITLE1=Boxcar Willie - King Of The Road
TTITLE2=Charlie Daniels - Free Bird
TTITLE3=Juice Newton - Queen Of Hearts (Re-Recorded Version)
TTITLE4=Merle Haggard - Mama Tried
TTITLE5=Pat Travers - Black Betty
TTITLE6=Merl Haggard - Working Man Blues
TTITLE7=Great White - Once Bitten, Twice Shy (Re-Recorded Version)
TTITLE8=The Southern All Stars - Chicken Fried (Cover Version)
TTITLE9=Jim Dandy's Black Oak Arkansas - La Grange
TTITLE10=Bill Anderson - Lord Knows I'm Drinkin'
TTITLE11=George Thorogood - Purple People Eater
TTITLE12=Mickey Gilley - Don't The Girls Get Prettier At Closing Time
TTITLE13=Juice Newton - Angel Of The Morning (Re-Recorded Version)
TTITLE14=Commander Cody and His Lost Planet Airmen - Hot Rod Lincoln
TTITLE15=Wet Willie's Jimmy Hall - Against The Wind
TTITLE16=Pat Travers - Snortin' Whiskey, Drinkin' Cocaine (Re-Recorded Version)
TTITLE17=Kenny Rogers - Ruby Don't Take Your Love To Town
TTITLE18=Johnny Paycheck - The Only Hell My Mama Ever Raised
TTITLE19=Jim Dandy's Black Oak Arkansas - What's Your Name
EXTD=
EXTT0=
EXTT1=
EXTT2=
EXTT3=
EXTT4=
EXTT5=
EXTT6=
EXTT7=
EXTT8=
EXTT9=
EXTT10=
EXTT11=
EXTT12=
EXTT13=
EXTT14=
EXTT15=
EXTT16=
EXTT17=
EXTT18=
EXTT19=
PLAYORDER=
